<?xml version="1.0" encoding="utf-8"?>
<!-- Generator: Adobe Illustrator 22.0.1, SVG Export Plug-In . SVG Version: 6.00 Build 0)  -->
<svg version="1.1" id="Слой_1" xmlns="http://www.w3.org/2000/svg" xmlns:xlink="http://www.w3.org/1999/xlink" x="0px" y="0px"
	 viewBox="0 0 24 20" style="enable-background:new 0 0 24 20;" xml:space="preserve">
		<polygon fill="#FFFFFF" class="st0" points="6.6,6.5 4.1,9 10.9,15.7 23,3.6 20.6,1.2 10.9,10.8 		"/>
		<path fill="#FFFFFF" class="st0" d="M18.5,17.4c0,0.5-0.4,0.9-0.9,0.9H2.9c-0.5,0-0.9-0.4-0.9-0.9V2.6c0-0.5,0.4-0.9,0.9-0.9h14.7L19,0.4
			C18.6,0.1,18.1,0,17.7,0H2.9C1.4,0,0.3,1.2,0.3,2.6v14.8c0,1.4,1.2,2.6,2.6,2.6h14.8c1.4,0,2.6-1.2,2.6-2.6V8.8l-1.7,1.7V17.4z"/>
</svg>
