<?xml version="1.0" encoding="utf-8"?>
<!-- Generator: Adobe Illustrator 22.0.1, SVG Export Plug-In . SVG Version: 6.00 Build 0)  -->
<svg version="1.1" id="Слой_1" xmlns="http://www.w3.org/2000/svg" xmlns:xlink="http://www.w3.org/1999/xlink" x="0px" y="0px"
	 viewBox="0 0 24 20" style="enable-background:new 0 0 24 20;" xml:space="preserve">
<path fill="#FFFFFF" class="st0" d="M17.7,1.7c0.5,0,0.9,0.4,0.9,0.9v14.8c0,0.5-0.4,0.9-0.9,0.9H2.9c-0.5,0-0.9-0.4-0.9-0.9V2.6
	c0-0.5,0.4-0.9,0.9-0.9H17.7 M17.7,0H2.9C1.4,0,0.3,1.2,0.3,2.6v14.8c0,1.4,1.2,2.6,2.6,2.6h14.8c1.4,0,2.6-1.2,2.6-2.6V2.6
	C20.3,1.2,19.1,0,17.7,0L17.7,0z"/>
</svg>
